<svg xmlns="http://www.w3.org/2000/svg" xmlns:xlink="http://www.w3.org/1999/xlink" version="1.1" x="0px" y="0px" viewBox="0 0 94 117.5" style="enable-background:new 0 0 94 94;" xml:space="preserve"><g><g><path d="M52.375,20.733c0.187-1.052-4.489-1.14-5.322-1.07c-3.197,0.115-4.743,2.315-7.122,3.939    c-1.136,0.491-2.43,0.427-3.631,0.25c-3.103-0.768-6.68-1.148-9.299,1.07c-0.942,0.689-1.838,1.761-1.705,2.999    c0.042,0.438,0.309,0.967,0.808,0.958c0.57,0.057,0.761-0.868,0.28-1.082c0,0,0,0,0-0.001c0.531-1.816,3.397-3.014,5.179-2.935    c2.098-0.108,4.067,0.894,6.159,0.869c0.983-0.01,1.986-0.125,2.864-0.604c1.005-0.549,1.745-1.455,2.642-2.148    c2.476-2.312,5.587-1.458,8.633-1.631C52.171,21.344,52.372,21.012,52.375,20.733z"/><path d="M48.055,29.939c-1.874,0.597-3.36,1.964-5.111,2.815c-1.492,0.668-3.045,1.282-4.67,1.52    c-4.153,0.547-9.091-1.042-12.478,2.13c-0.75,0.552-1.912,2.044-0.767,2.736c0.523,0.154,1.059-0.45,0.744-0.933    c3.419-3.776,8.896-1.43,13.277-2.276c1.918-0.424,3.805-1.099,5.501-2.1c1.912-1.29,3.907-2.585,6.301-2.585    c0.295-0.028,0.5-0.272,0.54-0.558C51.52,29.495,48.82,29.63,48.055,29.939z"/><path d="M39.796,46.897c3.239,0.825,6.937,1.915,10.089,0.267c0.561-0.381,1.619-0.798,1.328-1.641    c-0.437-0.929-2.154,0.12-2.893,0.276c-2.097,0.506-4.278,0.15-6.357-0.283c-3.74-1.124-7.604-1.087-11.028,0.974    c-0.962,0.571-3.262,2.902-1.819,3.875c0.506,0.168,1.008-0.315,0.801-0.824C31.749,46.671,36.734,46.025,39.796,46.897z"/><path d="M91.05,7.81c-3.58-0.11-7.1,0.83-10.56,1.64c-4.91,1.26-9.82,3.22-13.49,6.84c0.03-0.73-0.62-1.7-1.38-1.12    c-0.99,1.01-1.8,2.18-2.71,3.26c-1.58,2.09-2.94,4.36-3.88,6.8c-0.23-1.21-0.51-3.21-1.38-3.15c-0.86,0.11-0.95,1.19-1.23,1.85    c-0.6,1.49-0.57,3.11-0.79,4.68c-0.4,2.49-0.31,5.03-0.03,7.53c0.12,0.62,0.11,1.36,0.32,1.98c-0.041,0.261-0.086,0.524-0.15,0.68    c-0.25,0.57-0.48,1.16-0.68,1.76c-0.45,1.48-0.71,3.02-0.99,4.54c-0.07,0.33,0.14,0.74,0.5,0.79c0.85,0.08,0.97-1.78,1.28-2.41    c0.38-1.34,0.82-2.67,1.4-3.93c-0.05-1.42,2.07-4.29,2.51-5.16c0.53-0.94,1.15-1.82,1.92-2.59c1.72-2.09,3.54-4.1,5.5-5.96    c1.41-1.46,2.8-2.94,4.38-4.21c2.05-1.75,4.08-3.52,6.5-4.75c0.21-0.12,0.46-0.03,0.57,0.18c0.13,0.24,0.07,0.58-0.15,0.74    c-0.65,0.49-1.3,0.97-1.96,1.46c-5.44,4.29-10.55,9.05-14.9,14.46c-0.98,1.43-2.92,5.11-2.92,5.13c-0.01,0.01-0.01,0.02-0.02,0.03    c0.33-0.1,0.66-0.21,0.99-0.31c0.93-0.24,1.85-0.49,2.77-0.77c0.45,2.16,0.92,4.31,1.16,6.5c0.25,2,0.33,4.04,0.73,6.02    c0.54,1.96,1.4,6.03,3.17,7.95c-1.92,0.54-3.79,1.34-5.71,1.88c-2.8,0.64-5.4,1.95-8.21,2.54c-3.41,0.7-6.94,0.02-10.34,0.82    c-4.28,1.05-8.6,3.81-10.18,8.08c-0.08,0.15-0.13,0.31-0.17,0.49c-0.15,0.53,0.34,1.23,0.93,1.03c0.67-0.16,1.06-0.8,1.56-1.23    c0.63-0.51,1.27-1.07,2.06-1.3c2.84-0.55,4.03,0.67,4.57,3.36c0.44,2.23-0.04,4.04-1.47,5.79c-3.3,3.71-7.18,1.06-10-1.7    c-2.01-2.58-3.34-5.6-4.6-8.6c-1.7-4.1-2.86-8.39-4.28-12.59c-1.35-3.89-1.91-7.96-2.52-12.01c-0.9-5.12-0.06-10.45-1.67-15.46    c-0.69-2.52-1.36-5.17-3.28-7.06c-1.07-1.28-2.42-2.5-4.1-2.73c0.48-0.3,0.97-0.59,1.47-0.85c7.05-2.76,14.81-2.15,22.11-3.8    c2.44-0.57,4.91-1.01,7.36-1.53c2.68-0.64,5.21-1.94,8.01-1.95c3.15-0.08,6.23,0.1,7.96,3.15c0.51,0.8,0.86,1.68,1.14,2.59    c0.32,0.65,1.27,2.99,2.19,2.31c0.88-0.82-0.47-2.47-0.64-3.45c-0.3-1.09-0.82-2.11-1.45-3.05c-2.11-3.35-5.44-3.73-9.07-3.63    c-2.64,0-5.07,1.03-7.54,1.81c-4.6,1.05-9.33,2.15-13.99,2.79c-3.87,0.43-7.8,0.58-11.59,1.55c-2.55,0.54-5.1,1.15-7.18,2.84    c-0.46,0.32-1.34,0.93-1.8,1.58c-1.55,0.46-2.98,1.35-3.81,2.7c-2.61,4.55-0.83,10.17,1.5,14.47c1.06,1.59,2.24,1.4,3.77,0.64    c2.76-1.06,5.41-2.38,8.12-3.57c0.16,2.23,0.15,4.45,0.28,6.67c0.24,3.4,0.86,6.75,1.37,10.12c0.77,4.25,2.35,8.28,3.69,12.37    c1.23,3.82,2.67,7.67,4.41,11.32c-1.29,0.41-2.55,0.93-3.7,1.66c-2.12,1.23-4.16,2.72-5.59,4.73c-2.19,3.81,1.17,5.08,4.46,5.15    c3.71-0.03,7.37-0.77,11.04-1.26c0.97-0.12,1.95-0.11,2.92-0.25c0.79-0.14,1.56-0.36,2.32-0.63c0.37,0.12,0.87,0.04,1.28-0.02    c0.83-0.1,1.66-0.15,2.49-0.14c2.87,0.06,5.4-1.39,7.93-2.58c2.13-0.98,4.64-1.33,6.9-2.01c5.73-1.82,12.42-1.28,17.2-5.41    c2.88-1.86,4.76-6.16,4.68-9.53c-0.14-3.86-3.42-7.23-7.39-6.69c-0.41,0.01-0.81,0.05-1.21,0.11c-0.36-0.5-1-0.91-1.29-1.41    c-0.7-1.11-1.29-2.3-1.65-3.57c-1.06-2.83-1.3-6.1-1.6-9.14c-0.25-2.14-0.67-4.28-1.21-6.37c0.08-0.03,0.16-0.06,0.24-0.09    c2.59-0.71,5.16-1.47,7.62-2.58c1.87-0.94,5.29-1.37,6.35-3.24c0.42-1.16-0.53-1.68-1.47-1.99c2.19-1.04,4.51-1.85,6.52-3.25    c1-0.67,3.06-2.07,1.78-3.35c-0.7-0.38-1.57-0.22-2.33-0.32c1.6-2.65,3.46-5.13,5.25-7.66c0.94-1.06,1.71-2.25,2.62-3.34    c0.63-0.77,1.5-1.6,1.4-2.68C91.94,8.32,91.56,7.84,91.05,7.81z"/></g></g><text x="0" y="109" fill="#000000" font-size="5px" font-weight="bold" font-family="'Helvetica Neue', Helvetica, Arial-Unicode, Arial, Sans-serif">Created by Hafiz Nur Lutfianto</text><text x="0" y="114" fill="#000000" font-size="5px" font-weight="bold" font-family="'Helvetica Neue', Helvetica, Arial-Unicode, Arial, Sans-serif">from the Noun Project</text></svg>